<svg xmlns="http://www.w3.org/2000/svg" xmlns:xlink="http://www.w3.org/1999/xlink" width="510" height="400" viewBox="0 0 510 400">
  <defs>
    <clipPath id="clip-Bootstrap_icon_1">
      <rect width="510" height="400"/>
    </clipPath>
  </defs>
  <g id="Bootstrap_icon_1" data-name="Bootstrap icon – 1" clip-path="url(#clip-Bootstrap_icon_1)">
    <rect width="510" height="400" fill="#fff"/>
    <g id="bootstrap-seeklogo.com" transform="translate(33 51)">
      <path id="Path_2495" data-name="Path 2495" d="M0,145.744a21.573,21.573,0,0,0,21.574,21.574h124.17a21.573,21.573,0,0,0,21.574-21.574V21.574A21.573,21.573,0,0,0,145.744,0H21.574A21.573,21.573,0,0,0,0,21.574Z" fill="#563d7c"/>
      <path id="Path_2496" data-name="Path 2496" d="M94.351,91.5V67.81h20.857a32.475,32.475,0,0,1,5.746.5,14.353,14.353,0,0,1,4.9,1.774,9.447,9.447,0,0,1,3.405,3.547,11.775,11.775,0,0,1,1.277,5.817q0,6.385-3.831,9.223a16.015,16.015,0,0,1-9.79,2.838Zm-22.276-41V151.806h49.092a51.8,51.8,0,0,0,13.266-1.7,35.475,35.475,0,0,0,11.493-5.25,25.853,25.853,0,0,0,8.016-9.152,27.88,27.88,0,0,0,2.98-13.266,28.071,28.071,0,0,0-4.611-16.246q-4.611-6.74-13.976-9.435a25.25,25.25,0,0,0,10.287-8.371q3.476-5.108,3.476-12.77A27.173,27.173,0,0,0,149.757,63.7a19.467,19.467,0,0,0-6.6-7.733,28.491,28.491,0,0,0-10.216-4.186,63.092,63.092,0,0,0-13.2-1.277Zm22.276,84V106.686h24.262q7.236,0,11.635,3.334t4.4,11.138a13.926,13.926,0,0,1-1.348,6.527,10.711,10.711,0,0,1-3.618,4.044,15.32,15.32,0,0,1-5.25,2.128,29.727,29.727,0,0,1-6.243.638Z" transform="translate(-24.968 -17.494)" fill="#fff"/>
    </g>
    <g id="Group_1684" data-name="Group 1684" transform="translate(25.057 19)">
      <g id="Group_1678" data-name="Group 1678" transform="translate(210.405 54.091)">
        <path id="Rectangle_3" data-name="Rectangle 3" d="M9.459,0H240.9a9.459,9.459,0,0,1,9.459,9.459V189.842A9.458,9.458,0,0,1,240.9,199.3H9.459A9.459,9.459,0,0,1,0,189.841V9.459A9.459,9.459,0,0,1,9.459,0Z" transform="translate(11.504 0)" fill="#c1c2c8"/>
        <rect id="Rectangle_4" data-name="Rectangle 4" width="222.428" height="168.143" transform="translate(25.47 15.51)" fill="#868589"/>
        <rect id="Rectangle_5" data-name="Rectangle 5" width="219.614" height="165.809" transform="translate(26.877 16.746)" fill="#928ebc"/>
        <rect id="Rectangle_6" data-name="Rectangle 6" width="158.671" height="156.312" transform="translate(57.349 26.242)" fill="#ecedef"/>
        <g id="Rectangle_7" data-name="Rectangle 7" transform="translate(63.148 49.276)" fill="#6cb7f4" stroke="#fff" stroke-miterlimit="10" stroke-width="2.5">
          <rect width="146.215" height="56.002" stroke="none"/>
          <rect x="-1.25" y="-1.25" width="148.715" height="58.502" fill="none"/>
        </g>
        <path id="Path_5" data-name="Path 5" d="M246.74,189.877,217,231.568h59.489Z" transform="translate(-110.306 -126.29)" fill="#8fcc8f"/>
        <path id="Path_6" data-name="Path 6" d="M235,183.843a6.245,6.245,0,1,1-6.245-6.245A6.245,6.245,0,0,1,235,183.843Z" transform="translate(-111.28 -124.123)" fill="#f9f0a0"/>
        <path id="Path_7" data-name="Path 7" d="M182.862,203.75c3.492-.006,6.985.012,10.476.012H210.36a1.622,1.622,0,0,0-.163-2.154,3.313,3.313,0,0,0-2.032-.2c.548-.066-.192-1.673-.39-1.855-1.189-1.088-2.435-.475-3.744-.09.286-.084-.037-1.361-.107-1.536a2.847,2.847,0,0,0-1.073-1.276,2.5,2.5,0,0,0-3.046.073,2.359,2.359,0,0,0-.418-2.114,5.07,5.07,0,0,0-3.7-2.391,3.5,3.5,0,0,0-3.386,2.424c.141-.43-1.283-1.569-1.6-1.753a3.125,3.125,0,0,0-3.361.207c-1.256.868-1.4,2.012-1.649,3.411a.267.267,0,0,1-.063.152.283.283,0,0,1-.2.048,2.371,2.371,0,0,0-2.172,3.354.232.232,0,0,1,.031.17c-.022.058-.087.085-.144.11-.744.329-1.39,3.4-.719,3.4Z" transform="translate(-104.157 -126.704)" fill="#fff"/>
        <path id="Path_8" data-name="Path 8" d="M305.012,201.162c-4.01-.006-8.02.015-12.03.015H273.437a1.862,1.862,0,0,1,.187-2.474,3.816,3.816,0,0,1,2.334-.226c-.631-.075.22-1.921.448-2.129,1.365-1.25,2.8-.545,4.3-.1-.328-.1.043-1.562.124-1.763a3.267,3.267,0,0,1,1.233-1.465,2.864,2.864,0,0,1,3.5.085,2.713,2.713,0,0,1,.48-2.429c.982-1.359,2.5-2.723,4.245-2.745a4.016,4.016,0,0,1,3.887,2.784c-.161-.493,1.474-1.8,1.841-2.014a3.587,3.587,0,0,1,3.858.238c1.443,1,1.612,2.31,1.894,3.916a.3.3,0,0,0,.072.175.327.327,0,0,0,.23.054,2.723,2.723,0,0,1,2.494,3.853.26.26,0,0,0-.035.2c.025.067.1.1.165.127.855.378,1.6,3.91.826,3.908Z" transform="translate(-120.198 -125.946)" fill="#fff"/>
        <rect id="Rectangle_8" data-name="Rectangle 8" width="219.614" height="9.496" transform="translate(26.877 16.746)" fill="#fff"/>
        <circle id="Ellipse_1" data-name="Ellipse 1" cx="3.02" cy="3.02" r="3.02" transform="translate(218.971 18.667)" fill="#d7d8dc"/>
        <path id="Path_9" data-name="Path 9" d="M369.7,138.353a3.02,3.02,0,1,1-3.02-3.02A3.02,3.02,0,0,1,369.7,138.353Z" transform="translate(-136.184 -116.666)" fill="#d7d8dc"/>
        <path id="Path_10" data-name="Path 10" d="M380.32,138.353a3.02,3.02,0,1,1-3.02-3.02A3.02,3.02,0,0,1,380.32,138.353Z" transform="translate(-138.059 -116.666)" fill="#d7d8dc"/>
        <g id="Group_7" data-name="Group 7" transform="translate(220.703 21.481)">
          <path id="Path_11" data-name="Path 11" d="M357.7,139.162h-2.059a.206.206,0,1,1,0-.412H357.7a.206.206,0,1,1,0,.412Z" transform="translate(-355.437 -138.75)" fill="#727176"/>
        </g>
        <g id="Group_10" data-name="Group 10" transform="translate(238.308 20.754)">
          <g id="Group_8" data-name="Group 8">
            <path id="Path_12" data-name="Path 12" d="M378.476,139.734a.207.207,0,0,1-.146-.061l-1.456-1.455a.206.206,0,1,1,.291-.291l1.457,1.455a.206.206,0,0,1-.146.352Z" transform="translate(-376.813 -137.867)" fill="#727176"/>
          </g>
          <g id="Group_9" data-name="Group 9">
            <path id="Path_13" data-name="Path 13" d="M377.019,139.734a.2.2,0,0,1-.145-.061.2.2,0,0,1,0-.291l1.456-1.455a.206.206,0,0,1,.292.291l-1.457,1.455A.206.206,0,0,1,377.019,139.734Z" transform="translate(-376.813 -137.867)" fill="#727176"/>
          </g>
        </g>
        <g id="Group_11" data-name="Group 11" transform="translate(229.183 21.281)">
          <path id="Path_14" data-name="Path 14" d="M367.433,140.413h-1.494a.207.207,0,0,1-.206-.206v-1.494a.207.207,0,0,1,.206-.206h1.494a.206.206,0,0,1,.206.206v1.494A.206.206,0,0,1,367.433,140.413ZM366.145,140h1.082v-1.082h-1.082Z" transform="translate(-365.733 -138.507)" fill="#727176"/>
        </g>
        <g id="Group_12" data-name="Group 12" transform="translate(229.93 20.298)">
          <path id="Path_15" data-name="Path 15" d="M368.34,139.219h-1.493a.206.206,0,0,1-.206-.206v-1.494a.205.205,0,0,1,.206-.206h1.493a.205.205,0,0,1,.206.206v1.494A.206.206,0,0,1,368.34,139.219Zm-1.287-.412h1.081v-1.082h-1.081Z" transform="translate(-366.641 -137.313)" fill="#727176"/>
        </g>
        <rect id="Rectangle_9" data-name="Rectangle 9" width="158.671" height="17.063" transform="translate(57.349 26.242)" fill="#9097dd"/>
        <ellipse id="Ellipse_2" data-name="Ellipse 2" cx="5.044" cy="5.044" rx="5.044" ry="5.044" transform="translate(63.148 30.849)" fill="#4a5399"/>
        <rect id="Rectangle_10" data-name="Rectangle 10" width="25.607" height="2.46" transform="translate(75.604 32.314)" fill="#fff"/>
        <rect id="Rectangle_11" data-name="Rectangle 11" width="77.243" height="2.46" transform="translate(132.12 113.662)" fill="#9db5d1"/>
        <rect id="Rectangle_12" data-name="Rectangle 12" width="77.243" height="2.459" transform="translate(132.12 119.141)" fill="#9db5d1"/>
        <rect id="Rectangle_13" data-name="Rectangle 13" width="77.243" height="2.459" transform="translate(132.12 124.62)" fill="#9db5d1"/>
        <rect id="Rectangle_14" data-name="Rectangle 14" width="37.754" height="42.189" transform="translate(117.867 140.216)" fill="#d7d8dc"/>
        <rect id="Rectangle_15" data-name="Rectangle 15" width="37.754" height="42.189" transform="translate(162.924 140.216)" fill="#d7d8dc"/>
        <rect id="Rectangle_16" data-name="Rectangle 16" width="37.754" height="42.189" transform="translate(69.558 140.216)" fill="#d7d8dc"/>
        <rect id="Rectangle_17" data-name="Rectangle 17" width="43.751" height="2.459" transform="translate(132.12 130.099)" fill="#9db5d1"/>
        <rect id="Rectangle_18" data-name="Rectangle 18" width="24.775" height="2.459" transform="translate(75.604 171.574)" fill="#9db5d1"/>
        <path id="Path_16" data-name="Path 16" d="M358.225,377.815c0,2.383-60.615,4.315-135.388,4.315S87.448,380.2,87.448,377.815s60.615-4.315,135.389-4.315S358.225,375.432,358.225,377.815Z" transform="translate(-87.448 -158.69)" fill="#5e65aa" opacity="0.4" style="mix-blend-mode: multiply;isolation: isolate"/>
        <rect id="Rectangle_19" data-name="Rectangle 19" width="24.775" height="2.459" transform="translate(75.604 176.504)" fill="#9db5d1"/>
        <rect id="Rectangle_20" data-name="Rectangle 20" width="24.775" height="2.459" transform="translate(124.297 171.574)" fill="#9db5d1"/>
        <rect id="Rectangle_21" data-name="Rectangle 21" width="24.775" height="2.459" transform="translate(124.297 176.504)" fill="#9db5d1"/>
        <rect id="Rectangle_22" data-name="Rectangle 22" width="24.776" height="2.459" transform="translate(169.249 171.574)" fill="#9db5d1"/>
        <rect id="Rectangle_23" data-name="Rectangle 23" width="24.776" height="2.459" transform="translate(169.249 176.504)" fill="#9db5d1"/>
        <rect id="Rectangle_24" data-name="Rectangle 24" width="15.719" height="2.459" transform="translate(75.604 37.129)" fill="#fff"/>
        <rect id="Rectangle_25" data-name="Rectangle 25" width="20.534" height="4.947" transform="translate(106.693 38.358)" fill="#5e65aa"/>
        <rect id="Rectangle_26" data-name="Rectangle 26" width="20.535" height="4.947" transform="translate(127.227 38.358)" fill="#4a5399"/>
        <rect id="Rectangle_27" data-name="Rectangle 27" width="20.533" height="4.947" transform="translate(147.761 38.358)" fill="#5e65aa"/>
        <rect id="Rectangle_28" data-name="Rectangle 28" width="20.534" height="4.947" transform="translate(168.295 38.358)" fill="#4a5399"/>
        <rect id="Rectangle_29" data-name="Rectangle 29" width="20.534" height="4.947" transform="translate(188.829 38.358)" fill="#5e65aa"/>
        <path id="Path_17" data-name="Path 17" d="M203.922,298.961a12.628,12.628,0,1,1-12.628-12.628A12.628,12.628,0,0,1,203.922,298.961Z" transform="translate(-103.543 -143.309)" fill="#817eb7"/>
        <path id="Path_18" data-name="Path 18" d="M263.339,298.961a12.628,12.628,0,1,1-12.628-12.628A12.628,12.628,0,0,1,263.339,298.961Z" transform="translate(-114.027 -143.309)" fill="#817eb7"/>
        <g id="Group_17" data-name="Group 17" transform="translate(241.309 26.242)">
          <rect id="Rectangle_30" data-name="Rectangle 30" width="5.183" height="156.312" fill="#d7d8dc"/>
          <g id="Group_16" data-name="Group 16" transform="translate(0 70.551)">
            <rect id="Rectangle_31" data-name="Rectangle 31" width="5.183" height="15.21" fill="#fff"/>
            <g id="Group_13" data-name="Group 13" transform="translate(1.064 4.641)">
              <rect id="Rectangle_32" data-name="Rectangle 32" width="3.055" height="0.824" fill="#c1c2c8"/>
            </g>
            <g id="Group_14" data-name="Group 14" transform="translate(1.064 6.563)">
              <rect id="Rectangle_33" data-name="Rectangle 33" width="3.055" height="0.824" fill="#c1c2c8"/>
            </g>
            <g id="Group_15" data-name="Group 15" transform="translate(1.064 8.484)">
              <rect id="Rectangle_34" data-name="Rectangle 34" width="3.055" height="0.824" fill="#c1c2c8"/>
            </g>
          </g>
        </g>
        <path id="Path_19" data-name="Path 19" d="M173.51,201.216l-3.8,4.352,3.8,4.352" transform="translate(-101.963 -128.291)" fill="none" stroke="#5c708e" stroke-linecap="round" stroke-linejoin="round" stroke-width="2"/>
        <path id="Path_20" data-name="Path 20" d="M331.781,201.216l3.8,4.352-3.8,4.352" transform="translate(-130.56 -128.291)" fill="none" stroke="#5c708e" stroke-linecap="round" stroke-linejoin="round" stroke-width="2"/>
        <rect id="Rectangle_35" data-name="Rectangle 35" width="72.987" height="14.686" transform="translate(96.399 199.3)" fill="#989ba8"/>
        <path id="Path_21" data-name="Path 21" d="M293.827,379.844H179.25a7.343,7.343,0,0,1,7.343-7.344h99.891a7.343,7.343,0,0,1,7.344,7.344Z" transform="translate(-103.646 -158.513)" fill="#c1c2c8"/>
        <circle id="Ellipse_3" data-name="Ellipse 3" cx="4.59" cy="4.59" r="4.59" transform="translate(132.095 186.132)" fill="gray"/>
        <path id="Path_22" data-name="Path 22" d="M205.691,200.745l-23.359,32.741H229.05Z" transform="translate(-104.19 -128.208)" fill="#6ea96f"/>
        <path id="Path_23" data-name="Path 23" d="M293.1,200.745l-23.359,32.741h46.717Z" transform="translate(-119.613 -128.208)" fill="#7dbc7d"/>
        <g id="Group_18" data-name="Group 18" transform="translate(189.688 28.309)">
          <path id="Path_24" data-name="Path 24" d="M322.856,149.581a2.54,2.54,0,1,1-2.54-2.54A2.54,2.54,0,0,1,322.856,149.581Z" transform="translate(-317.776 -147.041)" fill="#fff"/>
          <path id="Path_25" data-name="Path 25" d="M331.431,149.581a2.54,2.54,0,1,1-2.541-2.54A2.54,2.54,0,0,1,331.431,149.581Z" transform="translate(-319.289 -147.041)" fill="#fff"/>
          <path id="Path_26" data-name="Path 26" d="M340,149.581a2.54,2.54,0,1,1-2.54-2.54A2.54,2.54,0,0,1,340,149.581Z" transform="translate(-320.802 -147.041)" fill="#fff"/>
        </g>
      </g>
      <path id="Path_2493" data-name="Path 2493" d="M222.05,389.148c0,1.766-12.926,3.2-28.872,3.2s-28.873-1.431-28.873-3.2,12.927-3.2,28.873-3.2S222.05,387.383,222.05,389.148Z" transform="translate(109.396 -106.795)" fill="#5e65aa" opacity="0.4" style="mix-blend-mode: multiply;isolation: isolate"/>
      <path id="Path_2494" data-name="Path 2494" d="M365.4,389.148c0,1.766-12.927,3.2-28.873,3.2s-28.873-1.431-28.873-3.2,12.927-3.2,28.873-3.2S365.4,387.383,365.4,389.148Z" transform="translate(84.103 -106.795)" fill="#5e65aa" opacity="0.4" style="mix-blend-mode: multiply;isolation: isolate"/>
      <ellipse id="Ellipse_2226" data-name="Ellipse 2226" cx="19.36" cy="2.143" rx="19.36" ry="2.143" transform="translate(223.282 280.21)" fill="#5e65aa" opacity="0.4" style="mix-blend-mode: multiply;isolation: isolate"/>
      <g id="Group_1679" data-name="Group 1679" transform="translate(389.265 198.055)">
        <g id="Group_32" data-name="Group 32" transform="translate(30.9 77.954)">
          <path id="Path_35" data-name="Path 35" d="M352.493,385.819c-.006-.052-.01-.1-.016-.156q-.068-.552-.135-1.1a3.137,3.137,0,0,0-.633-1.831,2.047,2.047,0,0,0-1.307-.576c-2.785-.253-5.815,1.713-7.679,3.616a2.4,2.4,0,0,0-.324.413A22.992,22.992,0,0,0,352.493,385.819Z" transform="translate(-342.194 -382.13)" fill="#fff"/>
          <path id="Path_36" data-name="Path 36" d="M342.354,386.971c-.215.347-.311.735-.032,1.015a1.389,1.389,0,0,0,.87.287,32.4,32.4,0,0,0,5.081.054q1.235-.084,2.462-.263c.535-.078,1.408-.018,1.651-.615a1.734,1.734,0,0,0,.064-.841A22.992,22.992,0,0,1,342.354,386.971Z" transform="translate(-342.15 -382.921)" fill="#77777a"/>
        </g>
        <g id="Group_33" data-name="Group 33" transform="translate(15.323 79.934)">
          <path id="Path_37" data-name="Path 37" d="M333.578,388.22l-.017-.156q-.068-.551-.135-1.1a3.137,3.137,0,0,0-.635-1.83,2.038,2.038,0,0,0-1.308-.576c-2.784-.252-5.813,1.716-7.675,3.62a2.4,2.4,0,0,0-.325.413A23.014,23.014,0,0,0,333.578,388.22Z" transform="translate(-323.279 -384.533)" fill="#fff"/>
          <path id="Path_38" data-name="Path 38" d="M323.439,389.379c-.215.347-.31.735-.032,1.015a1.387,1.387,0,0,0,.871.286,32.207,32.207,0,0,0,5.081.052q1.235-.085,2.462-.264c.535-.077,1.408-.018,1.65-.616a1.723,1.723,0,0,0,.064-.841A23.014,23.014,0,0,1,323.439,389.379Z" transform="translate(-323.235 -385.323)" fill="#77777a"/>
        </g>
        <g id="Group_34" data-name="Group 34" transform="translate(24.472 49.978)">
          <path id="Path_39" data-name="Path 39" d="M351.782,381.763a3.886,3.886,0,0,0-.721-1.071c-.2-.231-.408-.458-.61-.687a10.381,10.381,0,0,1-2.469,2.077c.4.245.805.488,1.21.721a3.282,3.282,0,0,0,1.459.543,1.092,1.092,0,0,0,1.232-1.059A1.354,1.354,0,0,0,351.782,381.763Z" transform="translate(-336.75 -353.779)" fill="#7fa4c9"/>
          <path id="Path_40" data-name="Path 40" d="M348.044,374.386c-2.042-2.314-4.188-4.564-6.275-6.843a8.744,8.744,0,0,1-1.675-2.276c-.716-1.623.124-4.01.433-5.681.472-2.471,1.023-4.991,1.608-7.442l.006-.027c.018-.075.034-.151.045-.229a3.218,3.218,0,0,0-6.355-1.02c-.421,2.628-.786,5.206-1.089,7.853-.146,1.328-.283,2.65-.357,4.044l-.037,1.073c-.012.361,0,.778.011,1.163.012.218.042.486.068.726.018.133.023.223.053.39a6.019,6.019,0,0,0,.2.694,3.421,3.421,0,0,0,.264.609l.264.39c.082.114.2.283.26.347l.2.223a43.209,43.209,0,0,0,9.914,8.083A10.383,10.383,0,0,0,348.044,374.386Z" transform="translate(-334.344 -348.16)" fill="#efa467"/>
        </g>
        <g id="Group_35" data-name="Group 35" transform="translate(13.086 49.978)">
          <path id="Path_41" data-name="Path 41" d="M329.584,383.959a4.421,4.421,0,0,0,1.65,1.963,1.371,1.371,0,0,0,1.911-1.286,3.391,3.391,0,0,0-.242-1.072c-.077-.218-.167-.432-.254-.646a11.532,11.532,0,0,1-2.888,1.012C329.7,383.942,329.642,383.95,329.584,383.959Z" transform="translate(-322.118 -354.293)" fill="#7fa4c9"/>
          <path id="Path_42" data-name="Path 42" d="M331.6,348.583a3.217,3.217,0,0,0-4.39,1.2c-1.319,2.312-2.569,4.6-3.783,6.967-.6,1.191-1.2,2.381-1.757,3.66l-.414.992c-.137.334-.268.73-.4,1.092-.066.208-.133.47-.192.7-.03.13-.058.217-.088.384a6.08,6.08,0,0,0-.06.718,3.422,3.422,0,0,0,.034.665l.109.457c.482,1.781,1.627,3.106,2.548,4.628,1.073,1.774,2.208,3.508,3.229,5.312.394.693.876,1.459,1.348,2.154.067.1.132.2.2.312.058-.009.119-.017.176-.029a11.531,11.531,0,0,0,2.888-1.012c-.453-1.118-1-2.19-1.463-3.3-.808-1.959-1.621-3.917-2.454-5.865a10.077,10.077,0,0,1-1.033-3.066,3.5,3.5,0,0,1,.587-1.738c.558-1.056,1.2-2.14,1.853-3.215,1.31-2.148,2.713-4.312,4.122-6.4l.016-.023c.043-.064.084-.13.123-.2A3.217,3.217,0,0,0,331.6,348.583Z" transform="translate(-320.518 -348.16)" fill="#fcb97c"/>
        </g>
        <path id="Path_43" data-name="Path 43" d="M323.849,352.418a.834.834,0,0,0,.306.366c2.076,1.636,5.706,2.356,8.292,2.582.771.068,7.816.489,8.051-.593a37.365,37.365,0,0,0,1.2-9.373c-.105-2.006-.326-4.676-1.567-6.325-2.454-3.263-9.822-2.937-11.631,1-1.771,3.856-2.928,7.984-4.579,11.895a.746.746,0,0,0-.086.367A.406.406,0,0,0,323.849,352.418Z" transform="translate(-308.017 -296.187)" fill="#094c8e"/>
        <g id="Group_36" data-name="Group 36" transform="translate(18.276 19.17)">
          <path id="Path_44" data-name="Path 44" d="M340.946,313.08a2.471,2.471,0,1,0-4.933.285l.3,5.158a25.012,25.012,0,0,1,4.926-.41Z" transform="translate(-328.442 -310.752)" fill="#a5237e"/>
          <path id="Path_45" data-name="Path 45" d="M339.58,327.144c.021-.111.038-.224.053-.335a22.552,22.552,0,0,0,.176-4.089c-.01-.2-.227-3.059-.194-3.059a25.005,25.005,0,0,0-4.925.41l.151,2.626-3.134-1.46-2.309-1.075c-.558-.26-1.407-.846-2.022-.562a.9.9,0,0,0-.467,1.206,9.495,9.495,0,0,0,1.94,1.975c.794.757,1.61,1.492,2.435,2.217,1.774,1.557,3.5,2.95,5.883,3.423a2.137,2.137,0,0,0,2.022-.373A1.824,1.824,0,0,0,339.58,327.144Z" transform="translate(-326.821 -312.3)" fill="#fc9"/>
        </g>
        <path id="Path_46" data-name="Path 46" d="M330.265,304.953a12.782,12.782,0,1,1-16.085-8.247A12.782,12.782,0,0,1,330.265,304.953Z" transform="translate(-304.75 -288.994)" fill="#817eb7"/>
        <g id="Group_37" data-name="Group 37" transform="translate(19.672 11.382)">
          <path id="Path_47" data-name="Path 47" d="M330.938,302.381a1.5,1.5,0,0,0-.045-.437.127.127,0,0,0-.022-.054.15.15,0,0,0-.078-.045c-.472-.161-.944-.325-1.417-.486-.518-.175-.633.021-.815.474a.093.093,0,0,0-.009.057.089.089,0,0,0,.049.044,3.531,3.531,0,0,0,1.426.389A5.493,5.493,0,0,0,330.938,302.381Z" transform="translate(-328.522 -301.295)" fill="#fff"/>
          <path id="Path_48" data-name="Path 48" d="M328.516,303.348a.936.936,0,0,1,.021-.2q1.06-.188,2.122-.377a.135.135,0,0,1,.092.007.12.12,0,0,1,.046.068c.139.42-.307.675-.654.762-.185.047-.375.071-.556.129-.213.069-.595.317-.827.214C328.573,303.867,328.513,303.581,328.516,303.348Z" transform="translate(-328.516 -301.554)" fill="#fff"/>
        </g>
        <rect id="Rectangle_36" data-name="Rectangle 36" width="3.848" height="5.691" transform="translate(22.492 15.353) rotate(-12.765)" fill="#efa467"/>
        <path id="Path_49" data-name="Path 49" d="M335.8,304.624a7.5,7.5,0,0,1-3.741-.016c-1.2-.346-3.214-1.314-3.542-2.657-.071-.29-.03-.459.264-.5a4.478,4.478,0,0,0,1.146-.239c.135-.058,1.062-.49.884-.7a.207.207,0,0,0-.1-.053c-.28-.091-.56-.2-.846-.272a6.277,6.277,0,0,1-.99-.306c-.1-.046-.217-.116-.232-.229a.355.355,0,0,1,.038-.18c.114-.292.544-.9.385-1.192a1.731,1.731,0,0,0-.338-.371.538.538,0,0,1-.19-.446.479.479,0,0,1,.332-.332c.155-.056.321-.067.479-.113a3.645,3.645,0,0,0,1.835-1.815c.2-.4.328-.842.519-1.25a4.069,4.069,0,0,1,2.988-2.437,5.051,5.051,0,0,1,3.652.724,7.25,7.25,0,0,1,2.919,4.613,6.254,6.254,0,0,1-.292,3.97A7.628,7.628,0,0,1,335.8,304.624Z" transform="translate(-308.838 -288.172)" fill="#fcb97c"/>
        <path id="Path_50" data-name="Path 50" d="M329.9,335.029a12.694,12.694,0,0,0,6.019,1.141,10.639,10.639,0,0,0,3.537-.544,6.7,6.7,0,0,0,2.2-1.293,1.377,1.377,0,0,0-.062-1.1c-1.392-4.024-2.731-8.2-2.18-12.508.471-3.685,1.637-6.774-.8-10.117-2.686-3.683-6.256-.562-8.908,1.243a3.474,3.474,0,0,0-.448,5.593c1.83,1.477,1.692,5.03,1.258,7.068-.694,3.265-.9,6.615-1.816,9.869A12.079,12.079,0,0,0,329.9,335.029Z" transform="translate(-308.759 -291.254)" fill="#a5237e"/>
        <path id="Path_51" data-name="Path 51" d="M332.342,298.247h0a.33.33,0,0,1-.121-.45l.281-.486a.331.331,0,0,1,.451-.121h0a.332.332,0,0,1,.121.45l-.282.487A.33.33,0,0,1,332.342,298.247Z" transform="translate(-309.49 -289.181)" fill="#444242"/>
        <path id="Path_52" data-name="Path 52" d="M333.031,295.489a1.864,1.864,0,0,1,.807.373,1.027,1.027,0,0,1,.378.869.206.206,0,0,1-.41-.014v-.011a.578.578,0,0,0-.282-.436,1.328,1.328,0,0,0-.595-.17.311.311,0,0,1,.054-.62l.041.007Z" transform="translate(-309.572 -288.887)" fill="#9e155a"/>
        <path id="Path_53" data-name="Path 53" d="M338.329,297.97a1.14,1.14,0,0,1,.3.237,1.524,1.524,0,0,1-.658,2.3c-.549.277-1.587.028-1.991.387a.8.8,0,0,0-.2.367,2.669,2.669,0,0,0,.182,2.52.8.8,0,0,1,.119.227.757.757,0,0,1-.009.3,2.562,2.562,0,0,0,.4,1.954c.129.162,1.178,1.158,1.264.955a4.879,4.879,0,0,0-.093,3.423,4.112,4.112,0,0,0,.8,1.475c.117.124,1.254.918,1.333.63a3.416,3.416,0,0,0,.111,2.318,2.233,2.233,0,0,0,1.824,1.328,1.673,1.673,0,0,0,1.726-1.3,3.362,3.362,0,0,0,2.329-.558,2.193,2.193,0,0,0,.751-2.088,2.985,2.985,0,0,0,2.151-1.93,4.705,4.705,0,0,0,0-2.971c1.268-.961,1.417-2.88,1.037-4.309a5.7,5.7,0,0,0-1.071-2.111c-.115-.142-1.684-1.563-1.753-1.4a5.213,5.213,0,0,0,.109-3.745,5.426,5.426,0,0,0-1.631-2.486c-.124-.082-.265-.166-.3-.31a.61.61,0,0,1,.06-.36,2.891,2.891,0,0,0-3.759-3.688,2.186,2.186,0,0,0-2.9-1.51c-.436.167-.885.558-.782,1.014a1.406,1.406,0,0,0-.911-.734,3.151,3.151,0,0,0-3.457,1.367,2.6,2.6,0,0,0-.34.615c-.021.064-.077.856,0,.813a1.59,1.59,0,0,0-.707,1.816c.329,1.013,1.772,1.5,2.712,1.645a4.711,4.711,0,0,0,.1,1.408,1.434,1.434,0,0,0,.964.98c.068.016.145.031.18.091a.211.211,0,0,1,.012.141c-.093.5-.478,1.533.5,1.184a2.478,2.478,0,0,1,1-.169A1.444,1.444,0,0,1,338.329,297.97Z" transform="translate(-309.493 -287.474)" fill="#9e155a"/>
        <path id="Path_54" data-name="Path 54" d="M304.881,314.794a.992.992,0,0,1,.107-.544,1.023,1.023,0,0,1-.266-1.2.411.411,0,0,0,.068-.222.437.437,0,0,0-.068-.151.792.792,0,0,1,.09-.86c.064-.091.557-.581.613-.306.16.794,1.379,4.1,2.765,2.719a1.677,1.677,0,0,0,.361-1.052l.089-.87c.024-.238.109-.539.347-.559s.373.259.439.488l.82,2.852a2.524,2.524,0,0,1,.121.6c.088,2.267-3.769,1.936-4.786.752a.76.76,0,0,1-.2-.6.219.219,0,0,0,0-.115.2.2,0,0,0-.069-.08A1.248,1.248,0,0,1,304.881,314.794Z" transform="translate(-304.629 -291.7)" fill="#fcb97c"/>
        <g id="Group_38" data-name="Group 38" transform="translate(3.966 18.658)">
          <path id="Path_55" data-name="Path 55" d="M324.8,316.721c-.708.769-1.42,1.532-2.135,2.275-.69.711-1.434,1.466-2.06,2.016-.227-.077-.487-.18-.736-.287-.873-.382-1.785-.854-2.684-1.347-1.8-.99-3.608-2.08-5.358-3.19l-.024-.014a1.542,1.542,0,0,0-1.771,2.521c1.7,1.334,3.406,2.61,5.2,3.847.9.616,1.815,1.217,2.83,1.79a10.667,10.667,0,0,0,1.773.822l.3.092c.115.03.261.057.391.081a2.859,2.859,0,0,0,1.4-.1.823.823,0,0,0,.146-.056l.1-.044.193-.1c.127-.064.252-.133.376-.206l.436-.292c1.043-.739,1.831-1.417,2.68-2.126.829-.7,1.636-1.413,2.439-2.125.423-.376.838-.756,1.257-1.133a23.081,23.081,0,0,1-3.651-3.634C325.535,315.916,325.171,316.323,324.8,316.721Z" transform="translate(-309.444 -311.08)" fill="#fcb97c"/>
          <path id="Path_56" data-name="Path 56" d="M336.5,310.829a2.813,2.813,0,0,0-3.97.259l-.007.007c-1.017,1.16-2.056,2.317-3.1,3.468a23.083,23.083,0,0,0,3.651,3.633c1.169-1.055,2.329-2.115,3.489-3.2.067-.063.134-.131.2-.2A2.814,2.814,0,0,0,336.5,310.829Z" transform="translate(-312.97 -310.13)" fill="#d649b8"/>
        </g>
        <g id="Group_39" data-name="Group 39" transform="translate(26.703 11.046)">
          <path id="Path_57" data-name="Path 57" d="M338.839,301.015a.5.5,0,0,1,.112.578,1,1,0,0,1-.465.45,1.186,1.186,0,0,1-1.281-.153.094.094,0,0,0-.131.012.1.1,0,0,0,0,.119,1.231,1.231,0,0,0,.714.428,1.308,1.308,0,0,0,.844-.122,1.2,1.2,0,0,0,.576-.64.663.663,0,0,0-.283-.791.073.073,0,0,0-.1.027A.076.076,0,0,0,338.839,301.015Z" transform="translate(-337.053 -300.887)" fill="#f7825e"/>
          <path id="Path_58" data-name="Path 58" d="M338.818,301.977a.576.576,0,0,1-.357-.2,1.8,1.8,0,0,1-.262-.413.054.054,0,0,0-.1.039,1.968,1.968,0,0,0,.189.5.841.841,0,0,0,.457.386l.011,0a.162.162,0,1,0,.062-.315Z" transform="translate(-337.237 -300.966)" fill="#f7825e"/>
        </g>
      </g>
      <g id="Group_1681" data-name="Group 1681" transform="translate(277.417 183.235)">
        <path id="Rectangle_39" data-name="Rectangle 39" d="M5.354,0H45.5a5.355,5.355,0,0,1,5.355,5.355V8.063A5.356,5.356,0,0,1,45.5,13.418H5.354A5.354,5.354,0,0,1,0,8.064V5.354A5.354,5.354,0,0,1,5.354,0Z" transform="translate(0 0)" fill="#5e65aa"/>
        <rect id="Rectangle_40" data-name="Rectangle 40" width="36.632" height="2.459" transform="translate(6.841 5.062)" fill="#ecedef"/>
        <g id="Group_55" data-name="Group 55" transform="translate(5.784 8.938)">
          <path id="Path_88" data-name="Path 88" d="M188.52,284.816h-1.126a1.644,1.644,0,0,1-.351-.433,6.89,6.89,0,0,1-.322-2.559,4.052,4.052,0,0,0-.114-1.214.3.3,0,0,0-.234-.211.3.3,0,0,0-.254.13,1.872,1.872,0,0,0-.166.945q-.059.888-.118,1.776-.091-.694-.182-1.389a7.188,7.188,0,0,0-.152-1.314.3.3,0,0,0-.24-.214.283.283,0,0,0-.254.143,3.354,3.354,0,0,0-.1,1.36,3.8,3.8,0,0,0,.092,1.525,4.224,4.224,0,0,1-.506-1.513c-.042-.217-.084-1.2-.343-1.253a.235.235,0,0,0-.231.114.645.645,0,0,0-.08.259,6.209,6.209,0,0,0,.211,2.355,8.139,8.139,0,0,0-.29-.861c-.124-.334-.208-.69-.315-1.024a.224.224,0,0,0-.2-.175c-.14.008-.185.189-.189.33a6.868,6.868,0,0,0,.143,1.54c.135.629.334,1.243.474,1.872.274,1.225.823,2.761,2.32,2.883C187.37,288,188.52,284.816,188.52,284.816Z" transform="translate(-177.113 -280.333)" fill="#fc9"/>
          <path id="Path_89" data-name="Path 89" d="M208.988,284.816h1.126a1.631,1.631,0,0,0,.35-.433,6.873,6.873,0,0,0,.323-2.559,4.026,4.026,0,0,1,.114-1.214.265.265,0,0,1,.488-.081,1.872,1.872,0,0,1,.166.945l.119,1.776q.091-.694.182-1.389a7.186,7.186,0,0,1,.152-1.314.306.306,0,0,1,.241-.214.283.283,0,0,1,.254.143,3.369,3.369,0,0,1,.1,1.36,3.811,3.811,0,0,1-.092,1.525,4.24,4.24,0,0,0,.506-1.513c.042-.217.084-1.2.343-1.253a.236.236,0,0,1,.231.114.632.632,0,0,1,.08.259,6.208,6.208,0,0,1-.211,2.355,8.33,8.33,0,0,1,.289-.861c.124-.334.208-.69.316-1.024a.223.223,0,0,1,.2-.175c.14.008.185.189.189.33a6.869,6.869,0,0,1-.144,1.54c-.134.629-.334,1.243-.474,1.872-.274,1.225-.822,2.761-2.319,2.883C210.139,288,208.988,284.816,208.988,284.816Z" transform="translate(-181.69 -280.333)" fill="#fc9"/>
          <g id="Group_50" data-name="Group 50" transform="translate(9.794 43.81)">
            <path id="Path_90" data-name="Path 90" d="M207.091,374l-1.936-31.439a6.277,6.277,0,0,0,.307-1.913c0-3.928-3.649-7.114-8.15-7.114s-8.15,3.186-8.15,7.114a6.28,6.28,0,0,0,.463,2.346l-1.889,30.7a1.317,1.317,0,0,0,1.195,1.394l3.345.307a1.318,1.318,0,0,0,1.428-1.156l3.077-26.5c.176.01.352.024.531.024.241,0,.478-.014.713-.031l3.115,26.814a1,1,0,0,0,1.081.874l3.967-.363A1,1,0,0,0,207.091,374Z" transform="translate(-187.733 -333.529)" fill="#b53928"/>
            <path id="Path_91" data-name="Path 91" d="M217.176,388.833c.021.338.016,1.445.016,1.445H204.634s-.007-1.071-.015-1.445Z" transform="translate(-190.712 -343.287)" fill="#04183f"/>
            <g id="Group_49" data-name="Group 49" transform="translate(13.843 40.88)">
              <path id="Path_92" data-name="Path 92" d="M218.944,387.163a2.751,2.751,0,0,1,.2.99h-3.393a8.052,8.052,0,0,1,.576-3.175A5.739,5.739,0,0,1,218.944,387.163Z" transform="translate(-206.519 -383.487)" fill="#001a5a"/>
              <path id="Path_93" data-name="Path 93" d="M204.562,383.51l5.312-.343a29.162,29.162,0,0,1,4.472,1.491,8.051,8.051,0,0,0-.576,3.175h-9.164C204.574,386.511,204.509,383.514,204.562,383.51Z" transform="translate(-204.542 -383.167)" fill="#ecedef"/>
            </g>
            <circle id="Ellipse_6" data-name="Ellipse 6" cx="0.824" cy="0.824" r="0.824" transform="translate(15.647 41.977)" fill="#002e81"/>
          </g>
          <g id="Group_52" data-name="Group 52" transform="translate(2.655 84.689)">
            <path id="Path_94" data-name="Path 94" d="M179.081,388.833c-.021.338-.016,1.445-.016,1.445h12.558s.007-1.071.015-1.445Z" transform="translate(-179.064 -384.167)" fill="#04183f"/>
            <g id="Group_51" data-name="Group 51" transform="translate(0.017)">
              <path id="Path_95" data-name="Path 95" d="M179.279,387.163a2.734,2.734,0,0,0-.194.99h3.392a8.036,8.036,0,0,0-.576-3.175A5.748,5.748,0,0,0,179.279,387.163Z" transform="translate(-179.085 -383.487)" fill="#001a5a"/>
              <path id="Path_96" data-name="Path 96" d="M192.289,383.51l-5.312-.343a29.139,29.139,0,0,0-4.473,1.491,8.036,8.036,0,0,1,.576,3.175h9.164C192.275,386.511,192.341,383.514,192.289,383.51Z" transform="translate(-179.688 -383.167)" fill="#ecedef"/>
            </g>
            <circle id="Ellipse_7" data-name="Ellipse 7" cx="0.824" cy="0.824" r="0.824" transform="translate(9.186 1.098)" fill="#002e81"/>
          </g>
          <g id="Group_53" data-name="Group 53" transform="translate(0 5.959)">
            <path id="Path_97" data-name="Path 97" d="M186.642,289.261a15.884,15.884,0,0,0-3.014-1.692c-.292.451-.573.908-.863,1.36l3.126,1.711C186.142,290.179,186.39,289.718,186.642,289.261Z" transform="translate(-177.063 -287.569)" fill="#cc870e"/>
            <path id="Path_98" data-name="Path 98" d="M190.453,306.181l-.006,0c-1.8-1.246-3.607-2.522-5.384-3.8l-2.637-1.943c-.648-.492-1.333-1.015-1.914-1.5.125-.272.256-.549.391-.827.468-.964.973-1.94,1.481-2.911.745-1.424,1.513-2.845,2.285-4.263l-3.126-1.711c-.859,1.338-1.719,2.674-2.56,4.032-.589.952-1.173,1.907-1.747,2.9-.288.5-.57.992-.858,1.561-.068.124-.15.3-.228.488l-.115.269a2.4,2.4,0,0,0-.1.339,3.506,3.506,0,0,0-.075.451l-.016.227,0,.111v.058l.016.126a2.628,2.628,0,0,0,.132.506c.03.083.064.163.1.24l.058.114.021.036.17.261.091.126.055.069c.161.2.288.337.408.466.926.96,1.741,1.659,2.6,2.425l2.565,2.191c1.718,1.44,3.436,2.849,5.183,4.254.048.039.1.081.154.116a2.679,2.679,0,1,0,3.05-4.4Z" transform="translate(-175.841 -287.86)" fill="#dba231"/>
          </g>
          <g id="Group_54" data-name="Group 54" transform="translate(22.875 5.753)">
            <path id="Path_99" data-name="Path 99" d="M213.993,287.318a8.443,8.443,0,0,0-2.958,1.755c.231.422.46.847.691,1.269l3.092-1.741C214.543,288.174,214.27,287.745,213.993,287.318Z" transform="translate(-204.926 -287.318)" fill="#cc870e"/>
            <path id="Path_100" data-name="Path 100" d="M219.38,299.425l-.016-.227a3.51,3.51,0,0,0-.075-.451,2.284,2.284,0,0,0-.1-.339l-.115-.269c-.079-.184-.16-.363-.228-.488-.288-.569-.571-1.062-.858-1.561-.573-.991-1.158-1.945-1.747-2.9-.9-1.452-1.812-2.885-2.733-4.315l-3.092,1.741c.819,1.5,1.633,3.008,2.423,4.516.508.971,1.013,1.948,1.481,2.911.135.278.266.555.391.827-.581.483-1.266,1.006-1.913,1.5l-2.638,1.943c-1.777,1.283-3.584,2.559-5.384,3.8l-.012.008c-.05.035-.1.072-.149.112a2.678,2.678,0,1,0,3.359,4.172c1.748-1.406,3.466-2.815,5.183-4.254l2.565-2.191c.864-.766,1.678-1.464,2.6-2.425.12-.129.248-.266.408-.466l.055-.069.091-.126.17-.261.021-.036.058-.114a2.5,2.5,0,0,0,.1-.24,2.692,2.692,0,0,0,.132-.506l.016-.126v-.058Z" transform="translate(-203.617 -287.593)" fill="#dba231"/>
          </g>
          <path id="Path_101" data-name="Path 101" d="M206.469,336.209a40.238,40.238,0,0,1-18.084,0l.684-24.051a5.242,5.242,0,0,1,5.388-4.922H200.4a5.243,5.243,0,0,1,5.388,4.922Z" transform="translate(-178.054 -285.08)" fill="#e5b44a"/>
          <path id="Rectangle_41" data-name="Rectangle 41" d="M0,0H4.255a0,0,0,0,1,0,0V2.951A2.127,2.127,0,0,1,2.127,5.078h0A2.127,2.127,0,0,1,0,2.951V0A0,0,0,0,1,0,0Z" transform="translate(17.245 19.217)" fill="#fc9"/>
          <path id="Path_102" data-name="Path 102" d="M193.563,299.21a8.467,8.467,0,0,1-.491-3.433q-.006-1.784-.012-3.567a10.825,10.825,0,0,0-.481-3.853c-.246-.646-.616-1.255-.807-1.916a2.088,2.088,0,0,1,.289-1.961,1.476,1.476,0,0,1,1.994-.2,2.125,2.125,0,0,1,.176-1.635,1.68,1.68,0,0,1,1.527-.8,1.993,1.993,0,0,1,1.465,1.016c.308.506.464,1.076.733,1.6a4.849,4.849,0,0,1,4.639,2.245c-.156-.47.413-1.006.937-.863a.632.632,0,0,1,.151,1.149.79.79,0,0,1,1.193.32c.144.565-.618.882-1.135.814-.116,0-.6,7.29-.651,7.955-.041.506-.082,1.014-.135,1.52a5.515,5.515,0,0,1-.236,1.249,3.977,3.977,0,0,1-2.31,2.257,6.256,6.256,0,0,1-3.449.286,9.4,9.4,0,0,1-2.158-.733A2.8,2.8,0,0,1,193.563,299.21Z" transform="translate(-178.632 -280.598)" fill="#203051"/>
          <path id="Path_103" data-name="Path 103" d="M193.292,297.716l0-.03a5.78,5.78,0,0,0-.055-1.935.93.93,0,0,0-.176-.438.427.427,0,0,0-.693.117,1.292,1.292,0,0,0-.141.632c-.011.291-.009.582.006.872.019.39-.078,1.421.529,1.449a.462.462,0,0,0,.394-.238A1.111,1.111,0,0,0,193.292,297.716Z" transform="translate(-178.732 -282.952)" fill="#fc9"/>
          <path id="Path_104" data-name="Path 104" d="M205.545,297.54l0-.03a5.781,5.781,0,0,1,.055-1.935.934.934,0,0,1,.176-.439.427.427,0,0,1,.693.118,1.29,1.29,0,0,1,.14.632c.012.292.009.582,0,.874-.02.389.078,1.421-.529,1.449a.466.466,0,0,1-.394-.239A1.114,1.114,0,0,1,205.545,297.54Z" transform="translate(-181.072 -282.921)" fill="#fc9"/>
        </g>
      </g>
      <g id="Group_1682" data-name="Group 1682" transform="translate(231.089 64.249)">
        <path id="Path_105" data-name="Path 105" d="M131.486,135.382H115.181A1.185,1.185,0,0,1,114,134.2h0a1.185,1.185,0,0,1,1.182-1.182h16.306a1.186,1.186,0,0,1,1.182,1.182h0A1.186,1.186,0,0,1,131.486,135.382Z" transform="translate(-112.817 -126.415)" fill="#302e42"/>
        <path id="Path_106" data-name="Path 106" d="M131.486,147.489H115.181A1.185,1.185,0,0,1,114,146.307h0a1.184,1.184,0,0,1,1.182-1.181h16.306a1.185,1.185,0,0,1,1.182,1.181h0A1.186,1.186,0,0,1,131.486,147.489Z" transform="translate(-112.817 -128.551)" fill="#302e42"/>
        <path id="Path_107" data-name="Path 107" d="M131.486,159.6H115.181A1.184,1.184,0,0,1,114,158.414h0a1.185,1.185,0,0,1,1.182-1.182h16.306a1.186,1.186,0,0,1,1.182,1.182h0A1.185,1.185,0,0,1,131.486,159.6Z" transform="translate(-112.817 -130.687)" fill="#302e42"/>
        <path id="Path_108" data-name="Path 108" d="M131.486,171.7H115.181A1.184,1.184,0,0,1,114,170.521h0a1.184,1.184,0,0,1,1.182-1.181h16.306a1.185,1.185,0,0,1,1.182,1.181h0A1.185,1.185,0,0,1,131.486,171.7Z" transform="translate(-112.817 -132.824)" fill="#302e42"/>
        <path id="Path_109" data-name="Path 109" d="M131.486,183.81H115.181A1.184,1.184,0,0,1,114,182.629h0a1.185,1.185,0,0,1,1.182-1.182h16.306a1.186,1.186,0,0,1,1.182,1.182h0A1.185,1.185,0,0,1,131.486,183.81Z" transform="translate(-112.817 -134.96)" fill="#302e42"/>
        <path id="Path_110" data-name="Path 110" d="M131.486,195.918H115.181A1.185,1.185,0,0,1,114,194.736h0a1.185,1.185,0,0,1,1.182-1.182h16.306a1.186,1.186,0,0,1,1.182,1.182h0A1.186,1.186,0,0,1,131.486,195.918Z" transform="translate(-112.817 -137.096)" fill="#302e42"/>
        <path id="Path_111" data-name="Path 111" d="M131.486,208.025H115.181A1.185,1.185,0,0,1,114,206.843h0a1.184,1.184,0,0,1,1.182-1.181h16.306a1.185,1.185,0,0,1,1.182,1.181h0A1.186,1.186,0,0,1,131.486,208.025Z" transform="translate(-112.817 -139.233)" fill="#302e42"/>
        <path id="Path_112" data-name="Path 112" d="M131.486,220.132H115.181A1.184,1.184,0,0,1,114,218.951h0a1.184,1.184,0,0,1,1.182-1.182h16.306a1.185,1.185,0,0,1,1.182,1.182h0A1.185,1.185,0,0,1,131.486,220.132Z" transform="translate(-112.817 -141.369)" fill="#302e42"/>
        <path id="Path_113" data-name="Path 113" d="M131.486,232.239H115.181A1.184,1.184,0,0,1,114,231.057h0a1.184,1.184,0,0,1,1.182-1.181h16.306a1.185,1.185,0,0,1,1.182,1.181h0A1.185,1.185,0,0,1,131.486,232.239Z" transform="translate(-112.817 -143.505)" fill="#302e42"/>
        <path id="Path_114" data-name="Path 114" d="M131.486,244.346H115.181A1.184,1.184,0,0,1,114,243.165h0a1.185,1.185,0,0,1,1.182-1.182h16.306a1.186,1.186,0,0,1,1.182,1.182h0A1.185,1.185,0,0,1,131.486,244.346Z" transform="translate(-112.817 -145.641)" fill="#302e42"/>
        <path id="Path_115" data-name="Path 115" d="M131.486,256.454H115.181A1.184,1.184,0,0,1,114,255.272h0a1.185,1.185,0,0,1,1.182-1.182h16.306a1.186,1.186,0,0,1,1.182,1.182h0A1.185,1.185,0,0,1,131.486,256.454Z" transform="translate(-112.817 -147.777)" fill="#302e42"/>
        <path id="Path_116" data-name="Path 116" d="M131.486,268.561H115.181A1.185,1.185,0,0,1,114,267.379h0a1.185,1.185,0,0,1,1.182-1.182h16.306a1.186,1.186,0,0,1,1.182,1.182h0A1.186,1.186,0,0,1,131.486,268.561Z" transform="translate(-112.817 -149.914)" fill="#302e42"/>
        <path id="Path_117" data-name="Path 117" d="M131.486,280.668H115.181A1.185,1.185,0,0,1,114,279.486h0a1.184,1.184,0,0,1,1.182-1.181h16.306a1.185,1.185,0,0,1,1.182,1.181h0A1.186,1.186,0,0,1,131.486,280.668Z" transform="translate(-112.817 -152.05)" fill="#302e42"/>
        <path id="Path_118" data-name="Path 118" d="M131.486,292.775H115.181A1.184,1.184,0,0,1,114,291.594h0a1.185,1.185,0,0,1,1.182-1.182h16.306a1.186,1.186,0,0,1,1.182,1.182h0A1.185,1.185,0,0,1,131.486,292.775Z" transform="translate(-112.817 -154.186)" fill="#302e42"/>
        <path id="Path_119" data-name="Path 119" d="M131.486,304.883H115.181A1.185,1.185,0,0,1,114,303.7h0a1.184,1.184,0,0,1,1.182-1.181h16.306a1.185,1.185,0,0,1,1.182,1.181h0A1.186,1.186,0,0,1,131.486,304.883Z" transform="translate(-112.817 -156.323)" fill="#302e42"/>
        <path id="Path_120" data-name="Path 120" d="M131.486,316.99H115.181A1.184,1.184,0,0,1,114,315.808h0a1.185,1.185,0,0,1,1.182-1.182h16.306a1.186,1.186,0,0,1,1.182,1.182h0A1.185,1.185,0,0,1,131.486,316.99Z" transform="translate(-112.817 -158.459)" fill="#302e42"/>
        <path id="Path_121" data-name="Path 121" d="M131.486,329.1H115.181A1.185,1.185,0,0,1,114,327.915h0a1.185,1.185,0,0,1,1.182-1.182h16.306a1.186,1.186,0,0,1,1.182,1.182h0A1.186,1.186,0,0,1,131.486,329.1Z" transform="translate(-112.817 -160.595)" fill="#302e42"/>
        <path id="Path_122" data-name="Path 122" d="M131.486,341.2H115.181A1.185,1.185,0,0,1,114,340.022h0a1.184,1.184,0,0,1,1.182-1.181h16.306a1.185,1.185,0,0,1,1.182,1.181h0A1.185,1.185,0,0,1,131.486,341.2Z" transform="translate(-112.817 -162.731)" fill="#302e42"/>
        <path id="Path_123" data-name="Path 123" d="M131.486,353.311H115.181A1.184,1.184,0,0,1,114,352.13h0a1.185,1.185,0,0,1,1.182-1.182h16.306a1.186,1.186,0,0,1,1.182,1.182h0A1.185,1.185,0,0,1,131.486,353.311Z" transform="translate(-112.817 -164.868)" fill="#302e42"/>
        <path id="Path_124" data-name="Path 124" d="M131.486,365.419H115.181A1.185,1.185,0,0,1,114,364.237h0a1.185,1.185,0,0,1,1.182-1.182h16.306a1.186,1.186,0,0,1,1.182,1.182h0A1.186,1.186,0,0,1,131.486,365.419Z" transform="translate(-112.817 -167.004)" fill="#302e42"/>
        <path id="Path_125" data-name="Path 125" d="M131.486,377.526H115.181A1.184,1.184,0,0,1,114,376.345h0a1.186,1.186,0,0,1,1.182-1.183h16.306a1.186,1.186,0,0,1,1.182,1.183h0A1.185,1.185,0,0,1,131.486,377.526Z" transform="translate(-112.817 -169.14)" fill="#302e42"/>
        <path id="Path_126" data-name="Path 126" d="M113.746,343.731h0a1.186,1.186,0,0,1-1.182-1.182V126.182A1.185,1.185,0,0,1,113.746,125h0a1.185,1.185,0,0,1,1.182,1.182V342.549A1.186,1.186,0,0,1,113.746,343.731Z" transform="translate(-112.564 -125)" fill="#403c52"/>
        <path id="Path_127" data-name="Path 127" d="M134.98,343.731h0a1.186,1.186,0,0,1-1.182-1.182V126.182A1.185,1.185,0,0,1,134.98,125h0a1.185,1.185,0,0,1,1.182,1.182V342.549A1.186,1.186,0,0,1,134.98,343.731Z" transform="translate(-116.311 -125)" fill="#403c52"/>
      </g>
      <g id="Group_1680" data-name="Group 1680" transform="translate(318.42 -9.27)">
        <g id="Group_41" data-name="Group 41" transform="translate(0 60.558)">
          <path id="Path_59" data-name="Path 59" d="M218.909,111.59c-.172.075-.322.186-.3.34.032.242.424.281.708.254a46.337,46.337,0,0,1,6.308-.139,2.991,2.991,0,0,0,1.406-.154c1.079-.516.054-1.893-.642-2.3-1.189-.7-2.037-.164-3.032.474a17.964,17.964,0,0,1-4.271,1.461A1.722,1.722,0,0,0,218.909,111.59Z" transform="translate(-218.605 -109.263)" fill="#fcb97c"/>
          <path id="Path_60" data-name="Path 60" d="M225.18,110.862a2.545,2.545,0,0,1-.521.491,2.241,2.241,0,0,1-.64.194,1.3,1.3,0,0,0-.6.256.362.362,0,0,0-.049.528.762.762,0,0,0,.456.14,13.394,13.394,0,0,0,3.458-.165c1.019-.183,1.585-1.257.7-1.93C227.224,109.8,225.731,110.3,225.18,110.862Z" transform="translate(-219.429 -109.415)" fill="#fc9"/>
        </g>
        <g id="Group_42" data-name="Group 42" transform="translate(33.134 30.722)">
          <path id="Path_61" data-name="Path 61" d="M288.376,74.239a1.587,1.587,0,0,0,.054-.307,9.7,9.7,0,0,0-2.947-.9c0,.01-.013.017-.018.027l-.017.033c-.282.534-.564,1.078-.847,1.621q1.706.342,3.4.76C288.125,75.064,288.255,74.655,288.376,74.239Z" transform="translate(-263.383 -73.034)" fill="#f6eb45"/>
          <path id="Path_62" data-name="Path 62" d="M280.054,75.075c-.292.554-.585,1.109-.887,1.654-.576,1.09-1.169,2.168-1.788,3.209s-1.233,2.075-1.893,2.963a9.71,9.71,0,0,1-.726.888c-.23-.089-.529-.213-.806-.352-.479-.231-.986-.506-1.491-.8-1.015-.581-2.036-1.236-3.068-1.879-2.046-1.309-4.11-2.713-6.122-4.068l-.032-.021a2.828,2.828,0,0,0-3.215,4.652c2.115,1.5,4.245,2.864,6.485,4.172,1.114.661,2.261,1.276,3.468,1.865.6.294,1.222.58,1.894.85a10.918,10.918,0,0,0,2.431.716c.161.018.323.033.484.044a4.587,4.587,0,0,0,.654-.025,3.4,3.4,0,0,0,.769-.185,3.055,3.055,0,0,0,.6-.283,5.148,5.148,0,0,0,1.3-1.1,12.661,12.661,0,0,0,1.33-1.9,31.571,31.571,0,0,0,1.793-3.6c.848-2,1.579-4,2.217-6.041Q281.759,75.418,280.054,75.075Z" transform="translate(-258.837 -73.394)" fill="#3e007f"/>
        </g>
        <g id="Group_43" data-name="Group 43" transform="translate(6.244 33.559)">
          <path id="Path_63" data-name="Path 63" d="M226.187,108.641a4.85,4.85,0,0,0,2.953,1.966l1.179-.979a13.847,13.847,0,0,1-3.005-2.158Z" transform="translate(-226.187 -81.947)" fill="#f6eb45"/>
          <path id="Path_64" data-name="Path 64" d="M246.229,76.557a2.961,2.961,0,0,0-2.987,1.018,17.058,17.058,0,0,0-2.21,4.507q-1.012,2.473-1.895,5c-.413,1.181-.949,2.3-1.418,3.46a8.115,8.115,0,0,1-2.022,3.153c-1.379,1.214-2.65,2.6-3.932,3.935L227.555,102a13.847,13.847,0,0,0,3.005,2.158l9.758-8.119a1.95,1.95,0,0,0,.506-.651l.092-.193,7.074-14.871c.028-.059.058-.128.083-.19A2.536,2.536,0,0,0,246.229,76.557Z" transform="translate(-226.428 -76.479)" fill="#3e007f"/>
        </g>
        <path id="Path_65" data-name="Path 65" d="M289.4,66.027a2.766,2.766,0,0,0-2.588.911,4.171,4.171,0,0,0-.977,2.644c-.055,1.49.271,2.794,1.9,3.017a2.5,2.5,0,0,0,2.121-.92C291.2,70.152,292.292,66.687,289.4,66.027Z" transform="translate(-230.466 -41.066)" fill="#fcb97c"/>
        <path id="Path_66" data-name="Path 66" d="M268,117.9l-.246-.582L261.8,103.285a7.429,7.429,0,0,0,.08-1.036c0-4.52-3.979-8.184-8.888-8.184s-8.888,3.664-8.888,8.184a7.6,7.6,0,0,0,.147,1.444l-6.492,13.478-.273.566a2.75,2.75,0,0,0-.177,1.907l4.182,15.563a2.113,2.113,0,0,0,.113.31,5.5,5.5,0,0,0,4.147-.791,1.958,1.958,0,0,0,.007-.241l-1.052-14.425,6.755-9.758a9.2,9.2,0,0,0,3.177-.016l6.149,9.774-.306,14.535c0,.041.007.081.007.122a4.857,4.857,0,0,0,4.142.824,2.145,2.145,0,0,0,.147-.442l3.369-15.642A2.572,2.572,0,0,0,268,117.9Z" transform="translate(-221.889 -46.023)" fill="#002c6b"/>
        <path id="Path_67" data-name="Path 67" d="M245,99.927l2.649-19.018a5.678,5.678,0,0,1,5.586-4.659h1.934a5.678,5.678,0,0,1,5.567,4.565l3,19.112C257.553,103.066,252.466,103.377,245,99.927Z" transform="translate(-223.262 -42.88)" fill="#43009b"/>
        <rect id="Rectangle_37" data-name="Rectangle 37" width="4.971" height="4.971" transform="translate(28.12 28.91)" fill="#fcb97c"/>
        <path id="Path_68" data-name="Path 68" d="M262.291,66.718a1.584,1.584,0,0,0-.25-.976c-.2-.2-.581-.161-.831-.128a9.262,9.262,0,0,0-1.08.212,1.482,1.482,0,0,0-.4.152c-.294.18-.27.466-.189.769s.271.268.558.286a7.746,7.746,0,0,0,2.045-.142.194.194,0,0,0,.123-.058A.187.187,0,0,0,262.291,66.718Z" transform="translate(-225.818 -40.998)" fill="#fff"/>
        <path id="Path_69" data-name="Path 69" d="M259.971,67.512a.586.586,0,0,1,.295,0l.922.164.929.166a.617.617,0,0,1,.21.064.412.412,0,0,1,.178.315,1.236,1.236,0,0,1-.04.371.377.377,0,0,1-.116.241.361.361,0,0,1-.225.044,3.475,3.475,0,0,1-2.094-.8C259.876,67.954,259.67,67.617,259.971,67.512Z" transform="translate(-225.877 -41.335)" fill="#fff"/>
        <path id="Path_70" data-name="Path 70" d="M258.623,59.157a4.458,4.458,0,0,1-.759-.7c-.481-.613-.633-1.39-1.174-1.978a4.768,4.768,0,0,0-3.151-1.35,7.383,7.383,0,0,0-5.107,1.742c-1.673,1.51-1.979,3.959-1.721,6.094a8.712,8.712,0,0,0,2.411,5.094,8.173,8.173,0,0,0,8.394,1.924,5.661,5.661,0,0,0,1.264-.639,4.446,4.446,0,0,0,1.342-1.482,2.376,2.376,0,0,0,.314-1.45.287.287,0,0,0-.069-.142.352.352,0,0,0-.214-.069,6.452,6.452,0,0,1-2.288-.669.86.86,0,0,1-.365-.288.323.323,0,0,1,.056-.424.5.5,0,0,1,.315-.048,5.937,5.937,0,0,0,1.892-.215.422.422,0,0,0,.238-.141.363.363,0,0,0,.052-.162c.068-.645-.624-1.314-.283-1.865.16-.259.484-.352.731-.53C261.494,61.147,259.129,59.561,258.623,59.157Z" transform="translate(-223.55 -39.152)" fill="#fc9"/>
        <path id="Path_71" data-name="Path 71" d="M259.393,62.192h0a.414.414,0,0,1-.568-.129l-.521-.8a.413.413,0,0,1,.129-.567h0a.413.413,0,0,1,.567.128l.52.8A.413.413,0,0,1,259.393,62.192Z" transform="translate(-225.599 -40.124)" fill="#211915"/>
        <path id="Path_72" data-name="Path 72" d="M257.707,58.791a1.785,1.785,0,0,0-1.1,1.628" transform="translate(-225.31 -39.799)" fill="none" stroke="#724c37" stroke-linecap="round" stroke-linejoin="round" stroke-width="0.899"/>
        <path id="Path_73" data-name="Path 73" d="M249.508,68.746a2.552,2.552,0,0,1-1.95-.313c-.094-.054-.187-.109-.278-.166a9.561,9.561,0,0,1-3.182-3.293,7.047,7.047,0,0,1-1.033-5.29,2.708,2.708,0,0,1-1.951-.174,2.516,2.516,0,0,1-.522-.384,1.575,1.575,0,0,1-.455-.538,1.086,1.086,0,0,1,.52-1.263A2.583,2.583,0,0,1,241.845,57c.265-.016,1.014-.051,1.212.137a3.847,3.847,0,0,1-1.167-2.122,1.173,1.173,0,0,1,.285-.839c.76-.555,1.474-.038,1.9.626a4.263,4.263,0,0,1,.354.673c.057.137.284.585.226.726a11.721,11.721,0,0,1,2.484-3.41c1.619-1.72,3.373-3.47,5.631-4.165a4.112,4.112,0,0,1,2-.172c1.407.282,1.951,1.76,1.882,3.052a7.624,7.624,0,0,1-.507,1.99,6.43,6.43,0,0,1-1.445,2.369,21.41,21.41,0,0,0-2.752,2.921.764.764,0,0,0-.143.354.7.7,0,0,0,.088.334c.478,1,1.421,1.66,1.72,2.761a.512.512,0,0,1-.184.623c-.292.278-.779.572-1.18.346a1.586,1.586,0,0,1-.331-.277l-.8-.8a4.356,4.356,0,0,0-1.192-.944,1.579,1.579,0,0,0-1.847.337,1.516,1.516,0,0,0-.247,1.4,2.3,2.3,0,0,0,.768,1.291c.731.637,1.68,1,1.919,2.047a2.761,2.761,0,0,1,.01.86,3.221,3.221,0,0,1-.106.646A1.406,1.406,0,0,1,249.508,68.746Z" transform="translate(-222.393 -37.964)" fill="#8c5a4f"/>
        <g id="Group_44" data-name="Group 44" transform="translate(25.974 23.667)">
          <path id="Path_74" data-name="Path 74" d="M251.254,64.687a.6.6,0,0,0-.632.324,1.211,1.211,0,0,0-.077.776,1.427,1.427,0,0,0,1.1,1.1.112.112,0,0,1,.087.133.117.117,0,0,1-.111.09,1.475,1.475,0,0,1-.938-.356,1.568,1.568,0,0,1-.512-.889,1.45,1.45,0,0,1,.175-1.02.8.8,0,0,1,.959-.32.087.087,0,0,1,.049.114A.091.091,0,0,1,251.254,64.687Z" transform="translate(-250.144 -64.467)" fill="#ff946e"/>
          <path id="Path_75" data-name="Path 75" d="M250.59,65.756a.69.69,0,0,0,.454.188,2.155,2.155,0,0,0,.587-.06.065.065,0,0,1,.038.124,2.37,2.37,0,0,1-.614.193,1.012,1.012,0,0,1-.706-.144l-.012-.007a.2.2,0,0,1,.217-.324A.219.219,0,0,1,250.59,65.756Z" transform="translate(-250.163 -64.684)" fill="#ff946e"/>
        </g>
        <g id="Group_45" data-name="Group 45" transform="translate(36.936 88.188)">
          <path id="Path_76" data-name="Path 76" d="M270.863,149.666a5.911,5.911,0,0,0,3.023.024c0-.024,0-.049-.01-.072-.46-1.888-1.917-3.315-3.229-4.674a6.63,6.63,0,0,0-2.937-2c-2.323-.61-3.069.976-3.615,2.692a36.449,36.449,0,0,0,3.545,2.377A16.322,16.322,0,0,0,270.863,149.666Z" transform="translate(-263.568 -142.812)" fill="#493f34"/>
          <path id="Path_77" data-name="Path 77" d="M270.75,150.271a16.326,16.326,0,0,1-3.222-1.651,36.461,36.461,0,0,1-3.545-2.377c-.16.5-.3,1.01-.461,1.482a.512.512,0,0,0,.329.769l1.409.707a.774.774,0,0,0,.446.119c.391-.058.5-.649.88-.751.171-.046,1.285.864,1.5.986a12.745,12.745,0,0,0,1.935.877,5.084,5.084,0,0,0,3.509.264.413.413,0,0,0,.205-.117.345.345,0,0,0,.035-.284A5.911,5.911,0,0,1,270.75,150.271Z" transform="translate(-263.455 -143.417)" fill="#302821"/>
        </g>
        <g id="Group_46" data-name="Group 46" transform="translate(15.1 88.188)">
          <path id="Path_78" data-name="Path 78" d="M239.978,149.666a5.907,5.907,0,0,1-3.022.024c0-.024,0-.049.011-.072.459-1.888,1.916-3.315,3.228-4.674a6.632,6.632,0,0,1,2.936-2c2.324-.61,3.07.976,3.615,2.692a36.561,36.561,0,0,1-3.546,2.377A16.279,16.279,0,0,1,239.978,149.666Z" transform="translate(-236.943 -142.812)" fill="#493f34"/>
          <path id="Path_79" data-name="Path 79" d="M239.976,150.271a16.279,16.279,0,0,0,3.222-1.651,36.566,36.566,0,0,0,3.546-2.377c.16.5.3,1.01.46,1.482a.511.511,0,0,1-.329.769l-1.409.707a.772.772,0,0,1-.445.119c-.391-.058-.5-.649-.88-.751-.171-.046-1.286.864-1.5.986a12.745,12.745,0,0,1-1.935.877,5.084,5.084,0,0,1-3.509.264.409.409,0,0,1-.205-.117.348.348,0,0,1-.035-.284A5.907,5.907,0,0,0,239.976,150.271Z" transform="translate(-236.94 -143.417)" fill="#302821"/>
        </g>
        <g id="Group_47" data-name="Group 47" transform="translate(52.743 0)">
          <g id="Rectangle_38" data-name="Rectangle 38" transform="translate(0.034)" fill="#6cb7f4" stroke="#fff" stroke-miterlimit="10" stroke-width="2.5">
            <rect width="39.038" height="27.759" stroke="none"/>
            <rect x="-1.25" y="-1.25" width="41.538" height="30.259" fill="none"/>
          </g>
          <path id="Path_80" data-name="Path 80" d="M304.777,41.51a2.968,2.968,0,1,1-2.968-2.968A2.969,2.969,0,0,1,304.777,41.51Z" transform="translate(-285.506 -36.226)" fill="#f9f0a0"/>
          <path id="Path_81" data-name="Path 81" d="M284.437,50.853c1.659,0,3.32.007,4.98.007h8.09a.772.772,0,0,0-.077-1.025,1.578,1.578,0,0,0-.966-.093c.261-.031-.091-.8-.185-.882-.566-.517-1.158-.226-1.78-.043.136-.04-.017-.646-.051-.73a1.35,1.35,0,0,0-.51-.606,1.187,1.187,0,0,0-1.448.035,1.122,1.122,0,0,0-.2-1,2.412,2.412,0,0,0-1.758-1.137,1.662,1.662,0,0,0-1.609,1.152c.067-.2-.609-.745-.763-.833a1.484,1.484,0,0,0-1.6.1,2.091,2.091,0,0,0-.784,1.622.125.125,0,0,1-.031.072.129.129,0,0,1-.095.022,1.128,1.128,0,0,0-1.033,1.594.108.108,0,0,1,.016.081c-.011.028-.042.041-.068.054-.354.156-.661,1.618-.342,1.617Z" transform="translate(-282.904 -37.432)" fill="#fff"/>
          <path id="Path_82" data-name="Path 82" d="M325.161,43.524c-1.66,0-3.32.006-4.98.006h-8.09a.772.772,0,0,1,.077-1.025,1.58,1.58,0,0,1,.967-.093c-.262-.031.091-.8.184-.882.566-.517,1.157-.226,1.779-.042-.135-.04.018-.647.052-.73a1.349,1.349,0,0,1,.51-.606,1.185,1.185,0,0,1,1.448.035,1.122,1.122,0,0,1,.2-1,2.412,2.412,0,0,1,1.757-1.137,1.663,1.663,0,0,1,1.609,1.152c-.067-.2.61-.745.763-.833a1.484,1.484,0,0,1,1.6.1,2.092,2.092,0,0,1,.783,1.621.13.13,0,0,0,.03.072.138.138,0,0,0,.1.023,1.128,1.128,0,0,1,1.032,1.594.1.1,0,0,0-.015.081c.01.028.041.04.068.053.354.156.661,1.618.342,1.617Z" transform="translate(-287.816 -36.138)" fill="#fff"/>
          <path id="Path_83" data-name="Path 83" d="M309.895,45.375,295.758,65.191h28.275Z" transform="translate(-284.961 -37.432)" fill="#7dbc7d"/>
          <path id="Path_84" data-name="Path 84" d="M293.751,50.541,282.648,66.1h22.205Z" transform="translate(-282.648 -38.343)" fill="#6ea96f"/>
        </g>
        <path id="Path_85" data-name="Path 85" d="M287.255,71.112c-.117,1.3-1.512,1.769-2.157.541-.548-1.042-1.3-2-.629-3.182a4.687,4.687,0,0,1,1.87-1.563.7.7,0,0,1,.28-.11.452.452,0,0,1,.436.473.874.874,0,0,1-.341.614c-.183.158-.4.277-.581.432a.261.261,0,0,0-.1.128c-.028.111.079.2.171.274A2.767,2.767,0,0,1,287.255,71.112Z" transform="translate(-230.179 -41.212)" fill="#fc9"/>
        <path id="Path_86" data-name="Path 86" d="M251.034,74.843l-.493,1.477a.353.353,0,0,0,.18.428l3.188,1.551a.352.352,0,0,0,.483-.188l.533-1.356a.353.353,0,0,0-.166-.442l-3.229-1.672A.352.352,0,0,0,251.034,74.843Z" transform="translate(-224.237 -42.589)" fill="#f6eb45"/>
        <path id="Path_87" data-name="Path 87" d="M259.555,74.843l.492,1.477a.35.35,0,0,1-.18.428L256.678,78.3a.352.352,0,0,1-.483-.188l-.533-1.356a.353.353,0,0,1,.166-.442l3.228-1.672A.354.354,0,0,1,259.555,74.843Z" transform="translate(-225.139 -42.589)" fill="#f6eb45"/>
      </g>
    </g>
    <text id="Bootstrap" transform="translate(11.5 284.5)" fill="#563d7c" stroke="#000" stroke-width="1" font-size="49" font-family="Raleway-SemiBold, Raleway" font-weight="600"><tspan x="0" y="0">Bootstrap</tspan></text>
  </g>
</svg>
